<?xml version="1.0" encoding="UTF-8"?>
<svg version="1.1" xmlns="http://www.w3.org/2000/svg" width="413" height="169">
<path d="M0 0 C10.89 0 21.78 0 33 0 C33 1.98 33 3.96 33 6 C33.69867188 5.91621094 34.39734375 5.83242188 35.1171875 5.74609375 C36.02726562 5.64425781 36.93734375 5.54242188 37.875 5.4375 C38.77992187 5.33308594 39.68484375 5.22867188 40.6171875 5.12109375 C43 5 43 5 45 6 C45 11.28 45 16.56 45 22 C45.99 22 46.98 22 48 22 C48 25.96 48 29.92 48 34 C43.71 34 39.42 34 35 34 C34.505 30.04 34.505 30.04 34 26 C33.34 26 32.68 26 32 26 C31.505 22.535 31.505 22.535 31 19 C24.07 18.67 17.14 18.34 10 18 C10 20.31 10 22.62 10 25 C7.69 25 5.38 25 3 25 C3 25.66 3 26.32 3 27 C3.99 27 4.98 27 6 27 C6.02684312 29.81256281 6.04676188 32.62487241 6.0625 35.4375 C6.07087891 36.23994141 6.07925781 37.04238281 6.08789062 37.86914062 C6.0965143 39.91295221 6.0522815 41.95683902 6 44 C5 45 5 45 2.4375 45.0625 C1.633125 45.041875 0.82875 45.02125 0 45 C0 46.32 0 47.64 0 49 C3.3 49 6.6 49 10 49 C10 51.31 10 53.62 10 56 C10.66 56 11.32 56 12 56 C12 60.29 12 64.58 12 69 C15.63 69.33 19.26 69.66 23 70 C23 67.36 23 64.72 23 62 C25.97 62 28.94 62 32 62 C32 58.7 32 55.4 32 52 C36.29 52 40.58 52 45 52 C45 55.96 45 59.92 45 64 C42.03 64 39.06 64 36 64 C36 67.3 36 70.6 36 74 C33.36 74 30.72 74 28 74 C28 77.96 28 81.92 28 86 C18.76 86 9.52 86 0 86 C-0.84728203 81.76358987 -1.08384078 78.27587998 -1 74 C-3.31 74 -5.62 74 -8 74 C-8 70.04 -8 66.08 -8 62 C-9.65 62 -11.3 62 -13 62 C-14.63695052 60.36304948 -14.17132182 58.58068131 -14.1875 56.3125 C-14.1279391 46.50877631 -12.97827947 36.74636944 -12 27 C-11.34 27 -10.68 27 -10 27 C-10 26.01 -10 25.02 -10 24 C-9.01 23.67 -8.02 23.34 -7 23 C-7.14183696 21.24967156 -7.28863429 19.49974466 -7.4375 17.75 C-7.51871094 16.77546875 -7.59992187 15.8009375 -7.68359375 14.796875 C-7.91072733 12.0640452 -7.91072733 12.0640452 -8.66015625 9.765625 C-8.77230469 9.18296875 -8.88445313 8.6003125 -9 8 C-8.34 7.34 -7.68 6.68 -7 6 C-4.54901444 6.39532025 -2.36095721 7.21301426 0 8 C0 5.36 0 2.72 0 0 Z " fill="#FBFBFB" transform="translate(31,47)"/>
<path d="M0 0 C6.6 0 13.2 0 20 0 C20 0.99 20 1.98 20 3 C22.31 3 24.62 3 27 3 C27 3.66 27 4.32 27 5 C27.969375 4.979375 28.93875 4.95875 29.9375 4.9375 C33 5 33 5 34 6 C34.04080783 7.99958364 34.04254356 10.00045254 34 12 C35.32 12 36.64 12 38 12 C38 12.66 38 13.32 38 14 C39.98 14 41.96 14 44 14 C44.84800767 21.692641 45.12152487 29.26291674 45 37 C40.545 37.495 40.545 37.495 36 38 C35.67 39.65 35.34 41.3 35 43 C32.91673869 43.02709444 30.83337559 43.04643873 28.75 43.0625 C27.00976562 43.07990234 27.00976562 43.07990234 25.234375 43.09765625 C22.59022872 43.01782092 20.50173909 42.78643778 18 42 C18 42.66 18 43.32 18 44 C6.47835991 44.3690205 6.47835991 44.3690205 1 42 C1.2475 43.0209375 1.2475 43.0209375 1.5 44.0625 C2 47 2 47 2 54 C7.61 54 13.22 54 19 54 C19 54.99 19 55.98 19 57 C21.31 57 23.62 57 26 57 C26 55.68 26 54.36 26 53 C27.32 53 28.64 53 30 53 C30 52.34 30 51.68 30 51 C34.29 51 38.58 51 43 51 C43 54.96 43 58.92 43 63 C41.68 63 40.36 63 39 63 C39 63.99 39 64.98 39 66 C36.69 66 34.38 66 32 66 C32 66.99 32 67.98 32 69 C23.86706597 69.1272981 15.84589684 68.89340494 7.73852539 68.26782227 C4.29812025 68.02584643 1.28757851 67.84721273 -2 69 C-2.33 68.01 -2.66 67.02 -3 66 C-4.32 66 -5.64 66 -7 66 C-7 63.69 -7 61.38 -7 59 C-8.32 59 -9.64 59 -11 59 C-11.33 55.7 -11.66 52.4 -12 49 C-12.99 49 -13.98 49 -15 49 C-16.03026944 42.30324864 -16.10152799 35.7685324 -16 29 C-15.01 29 -14.02 29 -13 29 C-13 25.04 -13 21.08 -13 17 C-12.01 17 -11.02 17 -10 17 C-10 16.34 -10 15.68 -10 15 C-9.01 15 -8.02 15 -7 15 C-7 12.03 -7 9.06 -7 6 C-3.535 5.505 -3.535 5.505 0 5 C0 3.35 0 1.7 0 0 Z M13 12 C10.69 12.33 8.38 12.66 6 13 C6.33 18.61 6.66 24.22 7 30 C8.98 30 10.96 30 13 30 C13 31.32 13 32.64 13 34 C15.97 34 18.94 34 22 34 C22 33.01 22 32.02 22 31 C23.2065625 31.0309375 23.2065625 31.0309375 24.4375 31.0625 C26.93354885 31.29633621 26.93354885 31.29633621 28 30 C28.04063832 28.33382885 28.042721 26.66611905 28 25 C27.01 25 26.02 25 25 25 C25 22.69 25 20.38 25 18 C21.36576791 15.67409146 18.22911669 15.83734167 14 16 C13.67 14.68 13.34 13.36 13 12 Z " fill="#FCFCFC" transform="translate(109,54)"/>
<path d="M0 0 C4.29 0 8.58 0 13 0 C13.0784416 7.45195235 13.00109214 14.61694543 12 22 C10.35 22 8.7 22 7 22 C7 22.66 7 23.32 7 24 C6.01 24 5.02 24 4 24 C4 26.97 4 29.94 4 33 C3.34 33 2.68 33 2 33 C1.67 36.63 1.34 40.26 1 44 C-0.32 44 -1.64 44 -3 44 C-3 44.66 -3 45.32 -3 46 C-4.32 46 -5.64 46 -7 46 C-7 48.64 -7 51.28 -7 54 C-7.99 54 -8.98 54 -10 54 C-10 57.63 -10 61.26 -10 65 C-11.32 65 -12.64 65 -14 65 C-14 73.91 -14 82.82 -14 92 C-18.95 92.33 -23.9 92.66 -29 93 C-29 95.31 -29 97.62 -29 100 C-32.3 100 -35.6 100 -39 100 C-39 101.65 -39 103.3 -39 105 C-43.29 105 -47.58 105 -52 105 C-52 100.71 -52 96.42 -52 92 C-48.7 92 -45.4 92 -42 92 C-42 90.35 -42 88.7 -42 87 C-39.69 87 -37.38 87 -35 87 C-35 85.02 -35 83.04 -35 81 C-33.02 81 -31.04 81 -29 81 C-28.80610904 78.5211787 -28.61959877 76.04219069 -28.4375 73.5625 C-28.38142578 72.85544922 -28.32535156 72.14839844 -28.26757812 71.41992188 C-28.13809007 69.61572163 -28.06478392 67.80768048 -28 66 C-28.495 65.505 -28.495 65.505 -29 65 C-29.07179964 63.48071962 -29.08392007 61.95832518 -29.0625 60.4375 C-29.05347656 59.61121094 -29.04445313 58.78492188 -29.03515625 57.93359375 C-29.02355469 57.29550781 -29.01195312 56.65742187 -29 56 C-31.31 56 -33.62 56 -36 56 C-37.10228696 51.59085217 -37.07654536 47.51617599 -37 43 C-37.66 43 -38.32 43 -39 43 C-39 38.71 -39 34.42 -39 30 C-41.31 30 -43.62 30 -46 30 C-46 27.03 -46 24.06 -46 21 C-47.32 21 -48.64 21 -50 21 C-50 19.68 -50 18.36 -50 17 C-50.99 16.67 -51.98 16.34 -53 16 C-52.67 12.37 -52.34 8.74 -52 5 C-47.71 5 -43.42 5 -39 5 C-39 6.32 -39 7.64 -39 9 C-38.34 9 -37.68 9 -37 9 C-37 11.97 -37 14.94 -37 18 C-35.68 18 -34.36 18 -33 18 C-33 19.98 -33 21.96 -33 24 C-29.37 24 -25.74 24 -22 24 C-22 28.95 -22 33.9 -22 39 C-22.66 39 -23.32 39 -24 39 C-24 40.65 -24 42.3 -24 44 C-22.68 44 -21.36 44 -20 44 C-20 43.34 -20 42.68 -20 42 C-18.68 42 -17.36 42 -16 42 C-16 39.36 -16 36.72 -16 34 C-15.34 33.67 -14.68 33.34 -14 33 C-13.64080332 31.33871537 -13.31088368 29.67099977 -13 28 C-11.9375 25.6875 -11.9375 25.6875 -11 24 C-10.34 24 -9.68 24 -9 24 C-9 23.01 -9 22.02 -9 21 C-8.01 21 -7.02 21 -6 21 C-6 17.7 -6 14.4 -6 11 C-4.68 11 -3.36 11 -2 11 C-2 10.01 -2 9.02 -2 8 C-1.34 8 -0.68 8 0 8 C0 5.36 0 2.72 0 0 Z " fill="#FCFCFC" transform="translate(388,49)"/>
<path d="M0 0 C6.6 0 13.2 0 20 0 C20 0.99 20 1.98 20 3 C22.31 3 24.62 3 27 3 C27 3.66 27 4.32 27 5 C29.31 5 31.62 5 34 5 C34 7.31 34 9.62 34 12 C35.32 12 36.64 12 38 12 C38 12.66 38 13.32 38 14 C39.98 14 41.96 14 44 14 C44.84800767 21.692641 45.12152487 29.26291674 45 37 C42.36 37.33 39.72 37.66 37 38 C36.67 39.65 36.34 41.3 36 43 C33.93757383 43.02717692 31.87504297 43.0464758 29.8125 43.0625 C28.66394531 43.07410156 27.51539063 43.08570313 26.33203125 43.09765625 C23.40699414 43.01192832 20.83683709 42.67849023 18 42 C18 42.66 18 43.32 18 44 C6.47835991 44.3690205 6.47835991 44.3690205 1 42 C1 43.65 1 45.3 1 47 C1.66 47 2.32 47 3 47 C3 49.31 3 51.62 3 54 C8.61 54 14.22 54 20 54 C20 54.99 20 55.98 20 57 C22.31 57 24.62 57 27 57 C27 55.68 27 54.36 27 53 C27.99 53 28.98 53 30 53 C30 52.34 30 51.68 30 51 C34.29 51 38.58 51 43 51 C43 54.96 43 58.92 43 63 C42.01 63 41.02 63 40 63 C39.67 63.99 39.34 64.98 39 66 C37.02 66 35.04 66 33 66 C33 66.99 33 67.98 33 69 C24.58227779 69.29082342 16.32026065 68.79120736 7.9375 68.0625 C6.9261499 67.97564941 5.9147998 67.88879883 4.87280273 67.79931641 C-3.10965715 67.07418656 -3.10965715 67.07418656 -7 66 C-7 63.69 -7 61.38 -7 59 C-7.99 59 -8.98 59 -10 59 C-10 56.69 -10 54.38 -10 52 C-10.66 52 -11.32 52 -12 52 C-12 51.01 -12 50.02 -12 49 C-12.66 49 -13.32 49 -14 49 C-15.03026944 42.30324864 -15.10152799 35.7685324 -15 29 C-14.34 29 -13.68 29 -13 29 C-13 25.37 -13 21.74 -13 18 C-11.68 17.67 -10.36 17.34 -9 17 C-9 16.34 -9 15.68 -9 15 C-8.01 15 -7.02 15 -6 15 C-6 12.03 -6 9.06 -6 6 C-4.02 5.67 -2.04 5.34 0 5 C0 3.35 0 1.7 0 0 Z M13 12 C11.02 12.33 9.04 12.66 7 13 C7 18.61 7 24.22 7 30 C8.98 30 10.96 30 13 30 C13.33 31.32 13.66 32.64 14 34 C16.97 34 19.94 34 23 34 C23 33.01 23 32.02 23 31 C24.2065625 31.0309375 24.2065625 31.0309375 25.4375 31.0625 C27.93354885 31.29633621 27.93354885 31.29633621 29 30 C29.04063832 28.33382885 29.042721 26.66611905 29 25 C27.68 25 26.36 25 25 25 C25 22.69 25 20.38 25 18 C21.36576791 15.67409146 18.22911669 15.83734167 14 16 C13.67 14.68 13.34 13.36 13 12 Z " fill="#FDFDFD" transform="translate(218,54)"/>
<path d="M0 0 C1.97909398 -0.02686553 3.95828971 -0.04633375 5.9375 -0.0625 C7.03964844 -0.07410156 8.14179688 -0.08570313 9.27734375 -0.09765625 C12 0 12 0 13 1 C14.29176126 8.31998048 14.07132976 15.58170527 14 23 C9.38 23 4.76 23 0 23 C-0.33 23.66 -0.66 24.32 -1 25 C-5.29 25 -9.58 25 -14 25 C-14 27.64 -14 30.28 -14 33 C-15.65 33 -17.3 33 -19 33 C-19 35.64 -19 38.28 -19 41 C-18.34 41 -17.68 41 -17 41 C-17 45.62 -17 50.24 -17 55 C-18.65 55 -20.3 55 -22 55 C-21.98839844 55.61488281 -21.97679687 56.22976562 -21.96484375 56.86328125 C-21.95582031 57.67152344 -21.94679688 58.47976562 -21.9375 59.3125 C-21.92589844 60.11300781 -21.91429687 60.91351563 -21.90234375 61.73828125 C-22 64 -22 64 -23 67 C-22.01 67 -21.02 67 -20 67 C-20 71.95 -20 76.9 -20 82 C-25.28 82 -30.56 82 -36 82 C-36.83125944 71.29753477 -37.11822138 60.73187415 -37 50 C-35.02 50 -33.04 50 -31 50 C-31.33 47.03 -31.66 44.06 -32 41 C-32.66 41 -33.32 41 -34 41 C-34.97159933 33.31395526 -35.10920422 25.74136601 -35 18 C-33.68 18 -32.36 18 -31 18 C-31 17.01 -31 16.02 -31 15 C-32.65 15 -34.3 15 -36 15 C-36 10.71 -36 6.42 -36 2 C-31.71 2 -27.42 2 -23 2 C-23 3.32 -23 4.64 -23 6 C-18.05 6.33 -13.1 6.66 -8 7 C-7.67 5.68 -7.34 4.36 -7 3 C-4.69 3 -2.38 3 0 3 C0 2.01 0 1.02 0 0 Z " fill="#FDFDFD" transform="translate(312,48)"/>
<path d="M0 0 C4.29 0 8.58 0 13 0 C13 0.99 13 1.98 13 3 C13.66 3 14.32 3 15 3 C15 6.3 15 9.6 15 13 C16.32 13 17.64 13 19 13 C19 17.29 19 21.58 19 26 C17.68 26 16.36 26 15 26 C15 26.99 15 27.98 15 29 C15.66 29 16.32 29 17 29 C17 32.3 17 35.6 17 39 C16.34 39 15.68 39 15 39 C15 41.31 15 43.62 15 46 C13.02 46 11.04 46 9 46 C9 48.31 9 50.62 9 53 C10.32 53 11.64 53 13 53 C13 56.96 13 60.92 13 65 C11.68 65 10.36 65 9 65 C9 70.61 9 76.22 9 82 C10.65 82.33 12.3 82.66 14 83 C14 86.96 14 90.92 14 95 C12.68 95 11.36 95 10 95 C10 98.63 10 102.26 10 106 C5.05 106 0.1 106 -5 106 C-5 101.38 -5 96.76 -5 92 C-5.66 91.67 -6.32 91.34 -7 91 C-7 87.04 -7 83.08 -7 79 C-7.66 79 -8.32 79 -9 79 C-9 74.05 -9 69.1 -9 64 C-6.69 64 -4.38 64 -2 64 C-2 61.03 -2 58.06 -2 55 C-3.65 55 -5.3 55 -7 55 C-7.02691685 52.54159395 -7.04679802 50.08348118 -7.0625 47.625 C-7.07506836 46.57699219 -7.07506836 46.57699219 -7.08789062 45.5078125 C-7.11328125 40.2265625 -7.11328125 40.2265625 -6 38 C-4.35 38 -2.7 38 -1 38 C-0.67 38.66 -0.34 39.32 0 40 C0 37.69 0 35.38 0 33 C0.66 33 1.32 33 2 33 C2 29.7 2 26.4 2 23 C2.99 23 3.98 23 5 23 C5 20.36 5 17.72 5 15 C4.01 15 3.02 15 2 15 C2 14.01 2 13.02 2 12 C1.34 12 0.68 12 0 12 C0 8.04 0 4.08 0 0 Z " fill="#FDFDFD" transform="translate(170,24)"/>
<path d="M0 0 C2.23313559 3.53365899 2.10180918 6.08933334 1.6875 10.1875 C1.58824219 11.25355469 1.48898438 12.31960937 1.38671875 13.41796875 C1 16 1 16 0 17 C-0.14636054 20.36629251 -0.07193479 22.78419562 1 26 C3.31 26.33 5.62 26.66 8 27 C7.01 27.33 6.02 27.66 5 28 C4.67 28.99 4.34 29.98 4 31 C4 30.01 4 29.02 4 28 C3.195625 28.020625 2.39125 28.04125 1.5625 28.0625 C-1 28 -1 28 -2 27 C-2.69691347 17.89150298 -1.37338421 8.9760468 0 0 Z " fill="#F0F1EF" transform="translate(19,81)"/>
<path d="M0 0 C2.64 0.33 5.28 0.66 8 1 C8 1.33 8 1.66 8 2 C6.35 2 4.7 2 3 2 C3 5.63 3 9.26 3 13 C2.34 13 1.68 13 1 13 C-0.32229189 10.35541621 -0.09677194 8.32238699 -0.0625 5.375 C-0.05347656 4.37210937 -0.04445313 3.36921875 -0.03515625 2.3359375 C-0.02355469 1.56507812 -0.01195313 0.79421875 0 0 Z " fill="#EFF0EE" transform="translate(127,110)"/>
<path d="M0 0 C0.99 0 1.98 0 3 0 C3 0.66 3 1.32 3 2 C2.34 2 1.68 2 1 2 C1 6.29 1 10.58 1 15 C0.67 15 0.34 15 0 15 C-0.06058594 14.39671875 -0.12117188 13.7934375 -0.18359375 13.171875 C-0.30927734 11.97304687 -0.30927734 11.97304687 -0.4375 10.75 C-0.51871094 9.96109375 -0.59992187 9.1721875 -0.68359375 8.359375 C-0.93490397 6.00462654 -0.93490397 6.00462654 -1.66015625 3.828125 C-1.77230469 3.22484375 -1.88445313 2.6215625 -2 2 C-1.34 1.34 -0.68 0.68 0 0 Z " fill="#707070" transform="translate(24,53)"/>
<path d="M0 0 C3.3 0.33 6.6 0.66 10 1 C6 4 6 4 3.75 3.6875 C3.1725 3.460625 2.595 3.23375 2 3 C2 2.34 2 1.68 2 1 C1.34 0.67 0.68 0.34 0 0 Z " fill="#DDDDDD" transform="translate(104,119)"/>
<path d="" fill="#6A6A6A" transform="translate(0,0)"/>
</svg>
